<svg xmlns="http://www.w3.org/2000/svg" viewBox="0 0 720 340" width="720" height="340" role="img" aria-label="Daily GitHub traffic for abhiunix/AgentHarbor, Jul 18 to Sep 10">
  <rect width="720" height="340" fill="#1a1a19" rx="6"/>
  <g font-family="system-ui, -apple-system, 'Segoe UI', sans-serif">
  <line x1="44" y1="282.0" x2="700" y2="282.0" stroke="#2c2c2a" stroke-width="1"/>
  <text x="36" y="285.5" text-anchor="end" fill="#898781" font-size="11">0</text>
  <line x1="44" y1="156.0" x2="700" y2="156.0" stroke="#2c2c2a" stroke-width="1"/>
  <text x="36" y="159.5" text-anchor="end" fill="#898781" font-size="11">78</text>
  <line x1="44" y1="30.0" x2="700" y2="30.0" stroke="#2c2c2a" stroke-width="1"/>
  <text x="36" y="33.5" text-anchor="end" fill="#898781" font-size="11">156</text>
  <line x1="44" y1="282" x2="700" y2="282" stroke="#383835" stroke-width="1"/>
  <text x="44.0" y="300" text-anchor="start" fill="#898781" font-size="11">Jul 18</text>
  <text x="372.0" y="300" text-anchor="middle" fill="#898781" font-size="11">Aug 14</text>
  <text x="700.0" y="300" text-anchor="end" fill="#898781" font-size="11">Sep 10</text>
  <path d="M 44.0 282.0 L 56.1 282.0 L 68.3 275.5 L 80.4 282.0 L 92.6 282.0 L 104.7 282.0 L 116.9 282.0 L 129.0 282.0 L 141.2 282.0 L 153.3 277.2 L 165.5 261.0 L 177.6 240.0 L 189.8 217.4 L 201.9 254.5 L 214.1 246.5 L 226.2 180.2 L 238.4 261.0 L 250.5 256.2 L 262.7 275.5 L 274.8 278.8 L 287.0 277.2 L 299.1 241.6 L 311.3 265.8 L 323.4 227.1 L 335.6 257.8 L 347.7 249.7 L 359.9 273.9 L 372.0 235.2 L 384.1 273.9 L 396.3 277.2 L 408.4 275.5 L 420.6 267.5 L 432.7 259.4 L 444.9 282.0 L 457.0 280.4 L 469.2 273.9 L 481.3 262.6 L 493.5 277.2 L 505.6 277.2 L 517.8 275.5 L 529.9 282.0 L 542.1 273.9 L 554.2 277.2 L 566.4 275.5 L 578.5 275.5 L 590.7 282.0 L 602.8 262.6 L 615.0 278.8 L 627.1 280.4 L 639.3 278.8 L 651.4 282.0 L 663.6 280.4 L 675.7 278.8 L 687.9 280.4 L 700.0 272.3" fill="none" stroke="#3987e5" stroke-width="2" stroke-linejoin="round"/>
  <path d="M 44.0 282.0 L 56.1 282.0 L 68.3 278.8 L 80.4 282.0 L 92.6 282.0 L 104.7 282.0 L 116.9 282.0 L 129.0 282.0 L 141.2 282.0 L 153.3 280.4 L 165.5 278.8 L 177.6 270.7 L 189.8 267.5 L 201.9 272.3 L 214.1 275.5 L 226.2 262.6 L 238.4 280.4 L 250.5 270.7 L 262.7 278.8 L 274.8 280.4 L 287.0 278.8 L 299.1 278.8 L 311.3 278.8 L 323.4 257.8 L 335.6 269.1 L 347.7 265.8 L 359.9 273.9 L 372.0 273.9 L 384.1 278.8 L 396.3 278.8 L 408.4 280.4 L 420.6 278.8 L 432.7 273.9 L 444.9 282.0 L 457.0 280.4 L 469.2 277.2 L 481.3 278.8 L 493.5 278.8 L 505.6 280.4 L 517.8 278.8 L 529.9 282.0 L 542.1 275.5 L 554.2 278.8 L 566.4 275.5 L 578.5 280.4 L 590.7 282.0 L 602.8 277.2 L 615.0 278.8 L 627.1 280.4 L 639.3 278.8 L 651.4 282.0 L 663.6 280.4 L 675.7 278.8 L 687.9 280.4 L 700.0 275.5" fill="none" stroke="#3987e5" stroke-width="2" stroke-linejoin="round" stroke-dasharray="4 3"/>
  <path d="M 44.0 282.0 L 56.1 282.0 L 68.3 280.4 L 80.4 282.0 L 92.6 282.0 L 104.7 282.0 L 116.9 282.0 L 129.0 280.4 L 141.2 282.0 L 153.3 261.0 L 165.5 251.3 L 177.6 238.4 L 189.8 186.7 L 201.9 269.1 L 214.1 270.7 L 226.2 63.9 L 238.4 241.6 L 250.5 267.5 L 262.7 269.1 L 274.8 267.5 L 287.0 215.8 L 299.1 241.6 L 311.3 257.8 L 323.4 262.6 L 335.6 272.3 L 347.7 202.8 L 359.9 165.7 L 372.0 249.7 L 384.1 265.8 L 396.3 272.3 L 408.4 241.6 L 420.6 262.6 L 432.7 257.8 L 444.9 264.2 L 457.0 262.6 L 469.2 228.7 L 481.3 233.5 L 493.5 219.0 L 505.6 220.6 L 517.8 238.4 L 529.9 267.5 L 542.1 272.3 L 554.2 215.8 L 566.4 265.8 L 578.5 261.0 L 590.7 265.8 L 602.8 270.7 L 615.0 262.6 L 627.1 261.0 L 639.3 265.8 L 651.4 272.3 L 663.6 259.4 L 675.7 264.2 L 687.9 277.2 L 700.0 261.0" fill="none" stroke="#3cb977" stroke-width="2" stroke-linejoin="round"/>
  <path d="M 44.0 282.0 L 56.1 282.0 L 68.3 280.4 L 80.4 282.0 L 92.6 282.0 L 104.7 282.0 L 116.9 282.0 L 129.0 280.4 L 141.2 282.0 L 153.3 267.5 L 165.5 265.8 L 177.6 254.5 L 189.8 228.7 L 201.9 270.7 L 214.1 272.3 L 226.2 167.3 L 238.4 254.5 L 250.5 270.7 L 262.7 272.3 L 274.8 272.3 L 287.0 257.8 L 299.1 264.2 L 311.3 267.5 L 323.4 269.1 L 335.6 273.9 L 347.7 257.8 L 359.9 261.0 L 372.0 265.8 L 384.1 270.7 L 396.3 275.5 L 408.4 259.4 L 420.6 270.7 L 432.7 267.5 L 444.9 272.3 L 457.0 275.5 L 469.2 262.6 L 481.3 264.2 L 493.5 259.4 L 505.6 262.6 L 517.8 270.7 L 529.9 273.9 L 542.1 275.5 L 554.2 257.8 L 566.4 272.3 L 578.5 267.5 L 590.7 273.9 L 602.8 273.9 L 615.0 269.1 L 627.1 262.6 L 639.3 269.1 L 651.4 273.9 L 663.6 269.1 L 675.7 273.9 L 687.9 278.8 L 700.0 270.7" fill="none" stroke="#3cb977" stroke-width="2" stroke-linejoin="round" stroke-dasharray="4 3"/>
  <line x1="44" y1="320" x2="66" y2="320" stroke="#3987e5" stroke-width="2"/>
  <text x="72" y="324" fill="#c3c2b7" font-size="11">Views</text>
  <line x1="212" y1="320" x2="234" y2="320" stroke="#3987e5" stroke-width="2" stroke-dasharray="4 3"/>
  <text x="240" y="324" fill="#c3c2b7" font-size="11">Unique visitors</text>
  <line x1="380" y1="320" x2="402" y2="320" stroke="#3cb977" stroke-width="2"/>
  <text x="408" y="324" fill="#c3c2b7" font-size="11">Clones</text>
  <line x1="548" y1="320" x2="570" y2="320" stroke="#3cb977" stroke-width="2" stroke-dasharray="4 3"/>
  <text x="576" y="324" fill="#c3c2b7" font-size="11">Unique cloners</text>
  </g>
</svg>
