<svg xmlns="http://www.w3.org/2000/svg" viewBox="0 0 720 340" width="720" height="340" role="img" aria-label="Daily GitHub traffic for abhiunix/AgentHarbor, Jul 18 to Aug 22">
  <rect width="720" height="340" fill="#1a1a19" rx="6"/>
  <g font-family="system-ui, -apple-system, 'Segoe UI', sans-serif">
  <line x1="44" y1="282.0" x2="700" y2="282.0" stroke="#2c2c2a" stroke-width="1"/>
  <text x="36" y="285.5" text-anchor="end" fill="#898781" font-size="11">0</text>
  <line x1="44" y1="156.0" x2="700" y2="156.0" stroke="#2c2c2a" stroke-width="1"/>
  <text x="36" y="159.5" text-anchor="end" fill="#898781" font-size="11">78</text>
  <line x1="44" y1="30.0" x2="700" y2="30.0" stroke="#2c2c2a" stroke-width="1"/>
  <text x="36" y="33.5" text-anchor="end" fill="#898781" font-size="11">156</text>
  <line x1="44" y1="282" x2="700" y2="282" stroke="#383835" stroke-width="1"/>
  <text x="44.0" y="300" text-anchor="start" fill="#898781" font-size="11">Jul 18</text>
  <text x="362.6" y="300" text-anchor="middle" fill="#898781" font-size="11">Aug 4</text>
  <text x="700.0" y="300" text-anchor="end" fill="#898781" font-size="11">Aug 22</text>
  <path d="M 44.0 282.0 L 62.7 282.0 L 81.5 275.5 L 100.2 282.0 L 119.0 282.0 L 137.7 282.0 L 156.5 282.0 L 175.2 282.0 L 193.9 282.0 L 212.7 277.2 L 231.4 261.0 L 250.2 240.0 L 268.9 217.4 L 287.7 254.5 L 306.4 246.5 L 325.1 180.2 L 343.9 261.0 L 362.6 256.2 L 381.4 275.5 L 400.1 278.8 L 418.9 277.2 L 437.6 241.6 L 456.3 265.8 L 475.1 227.1 L 493.8 257.8 L 512.6 249.7 L 531.3 273.9 L 550.1 235.2 L 568.8 273.9 L 587.5 277.2 L 606.3 275.5 L 625.0 267.5 L 643.8 259.4 L 662.5 282.0 L 681.3 280.4 L 700.0 273.9" fill="none" stroke="#3987e5" stroke-width="2" stroke-linejoin="round"/>
  <path d="M 44.0 282.0 L 62.7 282.0 L 81.5 278.8 L 100.2 282.0 L 119.0 282.0 L 137.7 282.0 L 156.5 282.0 L 175.2 282.0 L 193.9 282.0 L 212.7 280.4 L 231.4 278.8 L 250.2 270.7 L 268.9 267.5 L 287.7 272.3 L 306.4 275.5 L 325.1 262.6 L 343.9 280.4 L 362.6 270.7 L 381.4 278.8 L 400.1 280.4 L 418.9 278.8 L 437.6 278.8 L 456.3 278.8 L 475.1 257.8 L 493.8 269.1 L 512.6 265.8 L 531.3 273.9 L 550.1 273.9 L 568.8 278.8 L 587.5 278.8 L 606.3 280.4 L 625.0 278.8 L 643.8 273.9 L 662.5 282.0 L 681.3 280.4 L 700.0 277.2" fill="none" stroke="#3987e5" stroke-width="2" stroke-linejoin="round" stroke-dasharray="4 3"/>
  <path d="M 44.0 282.0 L 62.7 282.0 L 81.5 280.4 L 100.2 282.0 L 119.0 282.0 L 137.7 282.0 L 156.5 282.0 L 175.2 280.4 L 193.9 282.0 L 212.7 261.0 L 231.4 251.3 L 250.2 238.4 L 268.9 186.7 L 287.7 269.1 L 306.4 270.7 L 325.1 63.9 L 343.9 241.6 L 362.6 267.5 L 381.4 269.1 L 400.1 267.5 L 418.9 215.8 L 437.6 241.6 L 456.3 257.8 L 475.1 262.6 L 493.8 272.3 L 512.6 202.8 L 531.3 165.7 L 550.1 249.7 L 568.8 265.8 L 587.5 272.3 L 606.3 241.6 L 625.0 262.6 L 643.8 257.8 L 662.5 264.2 L 681.3 262.6 L 700.0 228.7" fill="none" stroke="#3cb977" stroke-width="2" stroke-linejoin="round"/>
  <path d="M 44.0 282.0 L 62.7 282.0 L 81.5 280.4 L 100.2 282.0 L 119.0 282.0 L 137.7 282.0 L 156.5 282.0 L 175.2 280.4 L 193.9 282.0 L 212.7 267.5 L 231.4 265.8 L 250.2 254.5 L 268.9 228.7 L 287.7 270.7 L 306.4 272.3 L 325.1 167.3 L 343.9 254.5 L 362.6 270.7 L 381.4 272.3 L 400.1 272.3 L 418.9 257.8 L 437.6 264.2 L 456.3 267.5 L 475.1 269.1 L 493.8 273.9 L 512.6 257.8 L 531.3 261.0 L 550.1 265.8 L 568.8 270.7 L 587.5 275.5 L 606.3 259.4 L 625.0 270.7 L 643.8 267.5 L 662.5 272.3 L 681.3 275.5 L 700.0 262.6" fill="none" stroke="#3cb977" stroke-width="2" stroke-linejoin="round" stroke-dasharray="4 3"/>
  <line x1="44" y1="320" x2="66" y2="320" stroke="#3987e5" stroke-width="2"/>
  <text x="72" y="324" fill="#c3c2b7" font-size="11">Views</text>
  <line x1="212" y1="320" x2="234" y2="320" stroke="#3987e5" stroke-width="2" stroke-dasharray="4 3"/>
  <text x="240" y="324" fill="#c3c2b7" font-size="11">Unique visitors</text>
  <line x1="380" y1="320" x2="402" y2="320" stroke="#3cb977" stroke-width="2"/>
  <text x="408" y="324" fill="#c3c2b7" font-size="11">Clones</text>
  <line x1="548" y1="320" x2="570" y2="320" stroke="#3cb977" stroke-width="2" stroke-dasharray="4 3"/>
  <text x="576" y="324" fill="#c3c2b7" font-size="11">Unique cloners</text>
  </g>
</svg>
