<svg xmlns="http://www.w3.org/2000/svg" viewBox="0 0 720 340" width="720" height="340" role="img" aria-label="Daily GitHub traffic for abhiunix/AgentHarbor, Jul 18 to Jul 31">
  <rect width="720" height="340" fill="#fcfcfb" rx="6"/>
  <g font-family="system-ui, -apple-system, 'Segoe UI', sans-serif">
  <line x1="44" y1="282.0" x2="700" y2="282.0" stroke="#e1e0d9" stroke-width="1"/>
  <text x="36" y="285.5" text-anchor="end" fill="#898781" font-size="11">0</text>
  <line x1="44" y1="156.0" x2="700" y2="156.0" stroke="#e1e0d9" stroke-width="1"/>
  <text x="36" y="159.5" text-anchor="end" fill="#898781" font-size="11">34</text>
  <line x1="44" y1="30.0" x2="700" y2="30.0" stroke="#e1e0d9" stroke-width="1"/>
  <text x="36" y="33.5" text-anchor="end" fill="#898781" font-size="11">68</text>
  <line x1="44" y1="282" x2="700" y2="282" stroke="#c3c2b7" stroke-width="1"/>
  <text x="44.0" y="300" text-anchor="start" fill="#898781" font-size="11">Jul 18</text>
  <text x="346.8" y="300" text-anchor="middle" fill="#898781" font-size="11">Jul 24</text>
  <text x="700.0" y="300" text-anchor="end" fill="#898781" font-size="11">Jul 31</text>
  <path d="M 44.0 282.0 L 94.5 282.0 L 144.9 267.2 L 195.4 282.0 L 245.8 282.0 L 296.3 282.0 L 346.8 282.0 L 397.2 282.0 L 447.7 282.0 L 498.2 270.9 L 548.6 233.8 L 599.1 185.6 L 649.5 133.8 L 700.0 219.0" fill="none" stroke="#2a78d6" stroke-width="2" stroke-linejoin="round"/>
  <path d="M 44.0 282.0 L 94.5 282.0 L 144.9 274.6 L 195.4 282.0 L 245.8 282.0 L 296.3 282.0 L 346.8 282.0 L 397.2 282.0 L 447.7 282.0 L 498.2 278.3 L 548.6 274.6 L 599.1 256.1 L 649.5 248.6 L 700.0 259.8" fill="none" stroke="#2a78d6" stroke-width="2" stroke-linejoin="round" stroke-dasharray="4 3"/>
  <path d="M 44.0 282.0 L 94.5 282.0 L 144.9 278.3 L 195.4 282.0 L 245.8 282.0 L 296.3 282.0 L 346.8 282.0 L 397.2 278.3 L 447.7 282.0 L 498.2 233.8 L 548.6 211.6 L 599.1 181.9 L 649.5 63.4 L 700.0 252.4" fill="none" stroke="#2f9e63" stroke-width="2" stroke-linejoin="round"/>
  <path d="M 44.0 282.0 L 94.5 282.0 L 144.9 278.3 L 195.4 282.0 L 245.8 282.0 L 296.3 282.0 L 346.8 282.0 L 397.2 278.3 L 447.7 282.0 L 498.2 248.6 L 548.6 244.9 L 599.1 219.0 L 649.5 159.7 L 700.0 256.1" fill="none" stroke="#2f9e63" stroke-width="2" stroke-linejoin="round" stroke-dasharray="4 3"/>
  <line x1="44" y1="320" x2="66" y2="320" stroke="#2a78d6" stroke-width="2"/>
  <text x="72" y="324" fill="#52514e" font-size="11">Views</text>
  <line x1="212" y1="320" x2="234" y2="320" stroke="#2a78d6" stroke-width="2" stroke-dasharray="4 3"/>
  <text x="240" y="324" fill="#52514e" font-size="11">Unique visitors</text>
  <line x1="380" y1="320" x2="402" y2="320" stroke="#2f9e63" stroke-width="2"/>
  <text x="408" y="324" fill="#52514e" font-size="11">Clones</text>
  <line x1="548" y1="320" x2="570" y2="320" stroke="#2f9e63" stroke-width="2" stroke-dasharray="4 3"/>
  <text x="576" y="324" fill="#52514e" font-size="11">Unique cloners</text>
  </g>
</svg>
