<svg xmlns="http://www.w3.org/2000/svg" viewBox="0 0 620 430" width="620" height="430" role="img" aria-label="Unique visitors in last 14 days: 40 Unique visitors">
  <rect x="0.5" y="0.5" width="619" height="429" fill="#0d1117" stroke="#30363d" rx="6"/>
  <g font-family="system-ui, -apple-system, 'Segoe UI', sans-serif">
  <text x="28" y="44" fill="#e6edf3" font-size="18" font-weight="600">Unique visitors in last 14 days</text>
  <text x="28" y="70" fill="#848d97" font-size="14">40 Unique visitors</text>
  <line x1="64" y1="372.0" x2="592" y2="372.0" stroke="#21262d" stroke-width="1"/>
  <text x="52" y="376.0" text-anchor="end" fill="#848d97" font-size="12">0</text>
  <line x1="64" y1="305.0" x2="592" y2="305.0" stroke="#21262d" stroke-width="1"/>
  <text x="52" y="309.0" text-anchor="end" fill="#848d97" font-size="12">5</text>
  <line x1="64" y1="238.0" x2="592" y2="238.0" stroke="#21262d" stroke-width="1"/>
  <text x="52" y="242.0" text-anchor="end" fill="#848d97" font-size="12">10</text>
  <line x1="64" y1="171.0" x2="592" y2="171.0" stroke="#21262d" stroke-width="1"/>
  <text x="52" y="175.0" text-anchor="end" fill="#848d97" font-size="12">15</text>
  <line x1="64" y1="104.0" x2="592" y2="104.0" stroke="#21262d" stroke-width="1"/>
  <text x="52" y="108.0" text-anchor="end" fill="#848d97" font-size="12">20</text>
  <line x1="64.0" y1="104" x2="64.0" y2="372" stroke="#21262d" stroke-width="0.5"/>
  <line x1="104.6" y1="104" x2="104.6" y2="372" stroke="#21262d" stroke-width="0.5"/>
  <line x1="145.2" y1="104" x2="145.2" y2="372" stroke="#21262d" stroke-width="0.5"/>
  <line x1="185.8" y1="104" x2="185.8" y2="372" stroke="#21262d" stroke-width="0.5"/>
  <line x1="226.5" y1="104" x2="226.5" y2="372" stroke="#21262d" stroke-width="0.5"/>
  <line x1="267.1" y1="104" x2="267.1" y2="372" stroke="#21262d" stroke-width="0.5"/>
  <line x1="307.7" y1="104" x2="307.7" y2="372" stroke="#21262d" stroke-width="0.5"/>
  <line x1="348.3" y1="104" x2="348.3" y2="372" stroke="#21262d" stroke-width="0.5"/>
  <line x1="388.9" y1="104" x2="388.9" y2="372" stroke="#21262d" stroke-width="0.5"/>
  <line x1="429.5" y1="104" x2="429.5" y2="372" stroke="#21262d" stroke-width="0.5"/>
  <line x1="470.2" y1="104" x2="470.2" y2="372" stroke="#21262d" stroke-width="0.5"/>
  <line x1="510.8" y1="104" x2="510.8" y2="372" stroke="#21262d" stroke-width="0.5"/>
  <line x1="551.4" y1="104" x2="551.4" y2="372" stroke="#21262d" stroke-width="0.5"/>
  <line x1="592.0" y1="104" x2="592.0" y2="372" stroke="#21262d" stroke-width="0.5"/>
  
  <text x="64.0" y="396" text-anchor="middle" fill="#848d97" font-size="12">08/10</text>
  <text x="145.2" y="396" text-anchor="middle" fill="#848d97" font-size="12">08/12</text>
  <text x="226.5" y="396" text-anchor="middle" fill="#848d97" font-size="12">08/14</text>
  <text x="307.7" y="396" text-anchor="middle" fill="#848d97" font-size="12">08/16</text>
  <text x="388.9" y="396" text-anchor="middle" fill="#848d97" font-size="12">08/18</text>
  <text x="470.2" y="396" text-anchor="middle" fill="#848d97" font-size="12">08/20</text>
  <text x="551.4" y="396" text-anchor="middle" fill="#848d97" font-size="12">08/22</text>
  <path d="M 64.0 171.0 L 104.6 264.8 L 145.2 238.0 L 185.8 305.0 L 226.5 305.0 L 267.1 345.2 L 307.7 345.2 L 348.3 358.6 L 388.9 345.2 L 429.5 305.0 L 470.2 372.0 L 510.8 358.6 L 551.4 331.8 L 592.0 345.2" fill="none" stroke="#3fb950" stroke-width="2" stroke-linejoin="round"/>
  <text x="64.0" y="163.0" text-anchor="start" fill="#e6edf3" font-size="11" font-weight="600">15</text>
  <text x="104.6" y="256.8" text-anchor="middle" fill="#e6edf3" font-size="11" font-weight="600">8</text>
  <text x="145.2" y="230.0" text-anchor="middle" fill="#e6edf3" font-size="11" font-weight="600">10</text>
  <text x="185.8" y="297.0" text-anchor="middle" fill="#e6edf3" font-size="11" font-weight="600">5</text>
  <text x="226.5" y="297.0" text-anchor="middle" fill="#e6edf3" font-size="11" font-weight="600">5</text>
  <text x="267.1" y="337.2" text-anchor="middle" fill="#e6edf3" font-size="11" font-weight="600">2</text>
  <text x="307.7" y="337.2" text-anchor="middle" fill="#e6edf3" font-size="11" font-weight="600">2</text>
  <text x="348.3" y="350.6" text-anchor="middle" fill="#e6edf3" font-size="11" font-weight="600">1</text>
  <text x="388.9" y="337.2" text-anchor="middle" fill="#e6edf3" font-size="11" font-weight="600">2</text>
  <text x="429.5" y="297.0" text-anchor="middle" fill="#e6edf3" font-size="11" font-weight="600">5</text>
  <text x="470.2" y="364.0" text-anchor="middle" fill="#e6edf3" font-size="11" font-weight="600">0</text>
  <text x="510.8" y="350.6" text-anchor="middle" fill="#e6edf3" font-size="11" font-weight="600">1</text>
  <text x="551.4" y="323.8" text-anchor="middle" fill="#e6edf3" font-size="11" font-weight="600">3</text>
  <text x="592.0" y="337.2" text-anchor="end" fill="#e6edf3" font-size="11" font-weight="600">2</text>
  </g>
</svg>
