<svg xmlns="http://www.w3.org/2000/svg" viewBox="0 0 620 430" width="620" height="430" role="img" aria-label="Unique cloners in last 14 days: 159 Unique cloners">
  <rect x="0.5" y="0.5" width="619" height="429" fill="#ffffff" stroke="#d0d7de" rx="6"/>
  <g font-family="system-ui, -apple-system, 'Segoe UI', sans-serif">
  <text x="28" y="44" fill="#1f2328" font-size="18" font-weight="600">Unique cloners in last 14 days</text>
  <text x="28" y="70" fill="#656d76" font-size="14">159 Unique cloners</text>
  <line x1="64" y1="372.0" x2="592" y2="372.0" stroke="#d8dee4" stroke-width="1"/>
  <text x="52" y="376.0" text-anchor="end" fill="#656d76" font-size="12">0</text>
  <line x1="64" y1="305.0" x2="592" y2="305.0" stroke="#d8dee4" stroke-width="1"/>
  <text x="52" y="309.0" text-anchor="end" fill="#656d76" font-size="12">20</text>
  <line x1="64" y1="238.0" x2="592" y2="238.0" stroke="#d8dee4" stroke-width="1"/>
  <text x="52" y="242.0" text-anchor="end" fill="#656d76" font-size="12">40</text>
  <line x1="64" y1="171.0" x2="592" y2="171.0" stroke="#d8dee4" stroke-width="1"/>
  <text x="52" y="175.0" text-anchor="end" fill="#656d76" font-size="12">60</text>
  <line x1="64" y1="104.0" x2="592" y2="104.0" stroke="#d8dee4" stroke-width="1"/>
  <text x="52" y="108.0" text-anchor="end" fill="#656d76" font-size="12">80</text>
  <line x1="64.0" y1="104" x2="64.0" y2="372" stroke="#d8dee4" stroke-width="0.5"/>
  <line x1="104.6" y1="104" x2="104.6" y2="372" stroke="#d8dee4" stroke-width="0.5"/>
  <line x1="145.2" y1="104" x2="145.2" y2="372" stroke="#d8dee4" stroke-width="0.5"/>
  <line x1="185.8" y1="104" x2="185.8" y2="372" stroke="#d8dee4" stroke-width="0.5"/>
  <line x1="226.5" y1="104" x2="226.5" y2="372" stroke="#d8dee4" stroke-width="0.5"/>
  <line x1="267.1" y1="104" x2="267.1" y2="372" stroke="#d8dee4" stroke-width="0.5"/>
  <line x1="307.7" y1="104" x2="307.7" y2="372" stroke="#d8dee4" stroke-width="0.5"/>
  <line x1="348.3" y1="104" x2="348.3" y2="372" stroke="#d8dee4" stroke-width="0.5"/>
  <line x1="388.9" y1="104" x2="388.9" y2="372" stroke="#d8dee4" stroke-width="0.5"/>
  <line x1="429.5" y1="104" x2="429.5" y2="372" stroke="#d8dee4" stroke-width="0.5"/>
  <line x1="470.2" y1="104" x2="470.2" y2="372" stroke="#d8dee4" stroke-width="0.5"/>
  <line x1="510.8" y1="104" x2="510.8" y2="372" stroke="#d8dee4" stroke-width="0.5"/>
  <line x1="551.4" y1="104" x2="551.4" y2="372" stroke="#d8dee4" stroke-width="0.5"/>
  <line x1="592.0" y1="104" x2="592.0" y2="372" stroke="#d8dee4" stroke-width="0.5"/>
  
  <text x="64.0" y="396" text-anchor="middle" fill="#656d76" font-size="12">07/31</text>
  <text x="145.2" y="396" text-anchor="middle" fill="#656d76" font-size="12">08/02</text>
  <text x="226.5" y="396" text-anchor="middle" fill="#656d76" font-size="12">08/04</text>
  <text x="307.7" y="396" text-anchor="middle" fill="#656d76" font-size="12">08/06</text>
  <text x="388.9" y="396" text-anchor="middle" fill="#656d76" font-size="12">08/08</text>
  <text x="470.2" y="396" text-anchor="middle" fill="#656d76" font-size="12">08/10</text>
  <text x="551.4" y="396" text-anchor="middle" fill="#656d76" font-size="12">08/12</text>
  <path d="M 64.0 348.6 L 104.6 351.9 L 145.2 134.2 L 185.8 315.1 L 226.5 348.6 L 267.1 351.9 L 307.7 351.9 L 348.3 321.8 L 388.9 335.1 L 429.5 341.9 L 470.2 345.2 L 510.8 355.3 L 551.4 321.8 L 592.0 328.4" fill="none" stroke="#2da44e" stroke-width="2" stroke-linejoin="round"/>
  <text x="64.0" y="340.6" text-anchor="start" fill="#1f2328" font-size="11" font-weight="600">7</text>
  <text x="104.6" y="343.9" text-anchor="middle" fill="#1f2328" font-size="11" font-weight="600">6</text>
  <text x="145.2" y="126.2" text-anchor="middle" fill="#1f2328" font-size="11" font-weight="600">71</text>
  <text x="185.8" y="307.1" text-anchor="middle" fill="#1f2328" font-size="11" font-weight="600">17</text>
  <text x="226.5" y="340.6" text-anchor="middle" fill="#1f2328" font-size="11" font-weight="600">7</text>
  <text x="267.1" y="343.9" text-anchor="middle" fill="#1f2328" font-size="11" font-weight="600">6</text>
  <text x="307.7" y="343.9" text-anchor="middle" fill="#1f2328" font-size="11" font-weight="600">6</text>
  <text x="348.3" y="313.8" text-anchor="middle" fill="#1f2328" font-size="11" font-weight="600">15</text>
  <text x="388.9" y="327.1" text-anchor="middle" fill="#1f2328" font-size="11" font-weight="600">11</text>
  <text x="429.5" y="333.9" text-anchor="middle" fill="#1f2328" font-size="11" font-weight="600">9</text>
  <text x="470.2" y="337.2" text-anchor="middle" fill="#1f2328" font-size="11" font-weight="600">8</text>
  <text x="510.8" y="347.3" text-anchor="middle" fill="#1f2328" font-size="11" font-weight="600">5</text>
  <text x="551.4" y="313.8" text-anchor="middle" fill="#1f2328" font-size="11" font-weight="600">15</text>
  <text x="592.0" y="320.4" text-anchor="end" fill="#1f2328" font-size="11" font-weight="600">13</text>
  </g>
</svg>
